<?xml version="1.0" encoding="iso-8859-1"?>
<!-- Uploaded to: SVG Repo, www.svgrepo.com, Generator: SVG Repo Mixer Tools -->
<svg height="800px" width="800px" version="1.1" id="Layer_1" xmlns="http://www.w3.org/2000/svg" xmlns:xlink="http://www.w3.org/1999/xlink" 
	 viewBox="0 0 508 508" xml:space="preserve">
<circle style="fill:#FFD05B;" cx="254" cy="254" r="254"/>
<g>
	<path style="fill:#FFFFFF;" d="M304.4,376.8l14-74.8c0.4-1.6-0.8-3.2-2.4-3.6s-3.2,0.8-3.6,2.4l-14,75.6h6V376.8z"/>
	<path style="fill:#FFFFFF;" d="M209.6,376.8l-14-75.6c-0.4-1.6-2-2.8-3.6-2.4s-2.8,2-2.4,3.6l14,74.4H209.6z"/>
</g>
<polygon style="fill:#324A5E;" points="295.2,455.2 213.2,455.2 204,376.8 304.4,376.8 "/>
<path style="fill:#F1543F;" d="M254,52.8c-78.8,0-142.8,53.6-142.8,119.6c0,110,59.6,106,115.2,174.4h55.2
	c55.2-68.4,115.2-64.4,115.2-174.4C396.8,106.4,332.8,52.8,254,52.8z"/>
<path style="fill:#FFFFFF;" d="M272,346.8c36-68.4,75.2-64.4,75.2-174.4c0-66-41.6-119.6-93.2-119.6s-93.2,53.6-93.2,119.6
	c0,110,39.2,106,75.2,174.4H272z"/>
<path style="fill:#F1543F;" d="M260.8,346.8c14-68.4,29.2-64.4,29.2-174.4c0-66-16-119.6-36-119.6s-36,53.6-36,119.6
	c0,110,15.2,106,29.2,174.4H260.8z"/>
<path style="fill:#FF7058;" d="M254,52.8c-18.4,0-35.6,2.8-51.6,8c4.4,4.4,26,7.6,51.6,7.6c26,0,47.2-3.2,51.6-7.6
	C289.6,55.6,272.4,52.8,254,52.8z"/>
<path style="fill:#F1543F;" d="M226.4,346.8h55.2c12.4-15.2,24.8-27.2,37.2-37.2c-20.4,4-42,6-64.4,6s-44-2-64.4-6
	C201.6,319.6,214,331.6,226.4,346.8z"/>
</svg>